  0
SECTION
  2
HEADER
  9
$ANGBASE
  50
0.0
  9
$ANGDIR
  70
1
  9
$MEASUREMENT
  70
0
  0
ENDSEC
  0
SECTION
  2
TABLES
  0
TABLE
  2
LTYPE
  70
4
  0
LTYPE
  5
40F
  2
CONTINUOUS
  70
0
  3
Solid line
  72
65
  73
0
  40
0.0
  0
LTYPE
  5
410
  2
DASHDOT
 70
0
  3
Dash Dot ____ _ ____ _
 72
65
 73
4
 40
2.0
 49
1.25
 49
-0.25
 49
0.25
 49
-0.25
  0
LTYPE
  5
411
  2
DASHED
 70
0
  3
Dashed __ __ __ __ __
 72
65
 73
2
 40
0.75
 49
0.5
 49
-0.25
  0
LTYPE
  5
43B
  2
DOTTED
 70
0
  3
Dotted .  .  .  .
 72
65
 73
2
 40
0.2
 49
0.0
 49
-0.2
  0
ENDTAB
  0
TABLE
  2
STYLE
  70
4
  0
STYLE
  2
KICAD
  70
0
  40
0
  41
1
  42
1
  50
0
  71
0
  3
isocp.shx
  0
STYLE
  2
KICADB
  70
0
  40
0
  41
1
  42
1
  50
0
  71
0
  3
isocp.shx
  0
STYLE
  2
KICADI
  70
0
  40
0
  41
1
  42
1
  50
15
  71
0
  3
isocp.shx
  0
STYLE
  2
KICADBI
  70
0
  40
0
  41
1
  42
1
  50
15
  71
0
  3
isocp.shx
  0
ENDTAB
  0
TABLE
  2
LAYER
  70
1
  0
LAYER
  2
BLACK
  70
0
  62
7
  6
CONTINUOUS
  0
ENDTAB
  0
ENDSEC
  0
SECTION
  2
ENTITIES
0
LINE
8
BLACK
6
CONTINUOUS
10
8.6493901181102366
20
-3.4994850787401575
11
8.6508093307086611
21
-3.5000729527559056
0
LINE
8
BLACK
6
CONTINUOUS
10
8.6508093307086611
20
-3.5000729527559056
11
8.6518955511811022
21
-3.5011591732283462
0
LINE
8
BLACK
6
CONTINUOUS
10
8.6518955511811022
20
-3.5011591732283462
11
8.6524834251968503
21
-3.5025783858267716
0
LINE
8
BLACK
6
CONTINUOUS
10
8.6524834251968503
20
-3.5025783858267716
11
8.6525590551181093
21
-3.5033464566929133
0
LINE
8
BLACK
6
CONTINUOUS
10
8.6525590551181093
20
-3.5033464566929133
11
8.6525590551181093
21
-5.2749999999999995
0
LINE
8
BLACK
6
CONTINUOUS
10
8.6525590551181093
20
-5.2749999999999995
11
8.6524834251968503
21
-5.2757680708661416
0
LINE
8
BLACK
6
CONTINUOUS
10
8.6524834251968503
20
-5.2757680708661416
11
8.6522855511811017
21
-5.276245708661417
0
LINE
8
BLACK
6
CONTINUOUS
10
8.6522855511811017
20
-5.276245708661417
11
8.6522425984251967
21
-5.276546535433071
0
LINE
8
BLACK
6
CONTINUOUS
10
8.6522425984251967
20
-5.276546535433071
11
8.6520697244094489
21
-5.2767666929133856
0
LINE
8
BLACK
6
CONTINUOUS
10
8.6520697244094489
20
-5.2767666929133856
11
8.6518955511811022
21
-5.277187283464567
0
LINE
8
BLACK
6
CONTINUOUS
10
8.6518955511811022
20
-5.277187283464567
11
8.6511704724409455
21
-5.2779123228346458
0
LINE
8
BLACK
6
CONTINUOUS
10
8.6511704724409455
20
-5.2779123228346458
11
8.6509842519685041
21
-5.2781496062992126
0
LINE
8
BLACK
6
CONTINUOUS
10
8.6509842519685041
20
-5.2781496062992126
11
8.5810629527559055
21
-5.329633818897638
0
LINE
8
BLACK
6
CONTINUOUS
10
8.5810629527559055
20
-5.329633818897638
11
8.5102449212598419
21
-5.3798773228346457
0
LINE
8
BLACK
6
CONTINUOUS
10
8.5102449212598419
20
-5.3798773228346457
11
8.438552125984252
21
-5.4288646062992125
0
LINE
8
BLACK
6
CONTINUOUS
10
8.438552125984252
20
-5.4288646062992125
11
8.3660068503937008
21
-5.4765803543307081
0
LINE
8
BLACK
6
CONTINUOUS
10
8.3660068503937008
20
-5.4765803543307081
11
8.2926316929133854
21
-5.5230097637795277
0
LINE
8
BLACK
6
CONTINUOUS
10
8.2926316929133854
20
-5.5230097637795277
11
8.2184493700787407
21
-5.5681384251968504
0
LINE
8
BLACK
6
CONTINUOUS
10
8.2184493700787407
20
-5.5681384251968504
11
8.1434830314960625
21
-5.611952283464567
0
LINE
8
BLACK
6
CONTINUOUS
10
8.1434830314960625
20
-5.611952283464567
11
8.0677559055118113
21
-5.6544377559055121
0
LINE
8
BLACK
6
CONTINUOUS
10
8.0677559055118113
20
-5.6544377559055121
11
7.9912916141732282
21
-5.6955816141732285
0
LINE
8
BLACK
6
CONTINUOUS
10
7.9912916141732282
20
-5.6955816141732285
11
7.9141138188976372
21
-5.7353710236220472
0
LINE
8
BLACK
6
CONTINUOUS
10
7.9141138188976372
20
-5.7353710236220472
11
7.8362465748031491
21
-5.7737937007874018
0
LINE
8
BLACK
6
CONTINUOUS
10
7.8362465748031491
20
-5.7737937007874018
11
7.7577140551181101
21
-5.8108376377952755
0
LINE
8
BLACK
6
CONTINUOUS
10
7.7577140551181101
20
-5.8108376377952755
11
7.6785407086614175
21
-5.8464913779527556
0
LINE
8
BLACK
6
CONTINUOUS
10
7.6785407086614175
20
-5.8464913779527556
11
7.598751102362205
21
-5.8807438188976375
0
LINE
8
BLACK
6
CONTINUOUS
10
7.598751102362205
20
-5.8807438188976375
11
7.5183700787401575
21
-5.913584251968504
0
LINE
8
BLACK
6
CONTINUOUS
10
7.5183700787401575
20
-5.913584251968504
11
7.4374225590551175
21
-5.9450025590551183
0
LINE
8
BLACK
6
CONTINUOUS
10
7.4374225590551175
20
-5.9450025590551183
11
7.3559337401574805
21
-5.9749889370078737
0
LINE
8
BLACK
6
CONTINUOUS
10
7.3559337401574805
20
-5.9749889370078737
11
7.2739289763779524
21
-6.003534094488189
0
LINE
8
BLACK
6
CONTINUOUS
10
7.2739289763779524
20
-6.003534094488189
11
7.1914337007874014
21
-6.0306290944881891
0
LINE
8
BLACK
6
CONTINUOUS
10
7.1914337007874014
20
-6.0306290944881891
11
7.1084735826771652
21
-6.0562655511811023
0
LINE
8
BLACK
6
CONTINUOUS
10
7.1084735826771652
20
-6.0562655511811023
11
7.0250744094488189
21
-6.0804355118110234
0
LINE
8
BLACK
6
CONTINUOUS
10
7.0250744094488189
20
-6.0804355118110234
11
6.9412621259842515
21
-6.1031314566929131
0
LINE
8
BLACK
6
CONTINUOUS
10
6.9412621259842515
20
-6.1031314566929131
11
6.8570627165354328
21
-6.1243463385826766
0
LINE
8
BLACK
6
CONTINUOUS
10
6.8570627165354328
20
-6.1243463385826766
11
6.772502401574803
21
-6.1440735039370074
0
LINE
8
BLACK
6
CONTINUOUS
10
6.772502401574803
20
-6.1440735039370074
11
6.6876074409448814
21
-6.1623069291338579
0
LINE
8
BLACK
6
CONTINUOUS
10
6.6876074409448814
20
-6.1623069291338579
11
6.6024042519685038
21
-6.1790408267716534
0
LINE
8
BLACK
6
CONTINUOUS
10
6.6024042519685038
20
-6.1790408267716534
11
6.5169192913385823
21
-6.194270078740157
0
LINE
8
BLACK
6
CONTINUOUS
10
6.5169192913385823
20
-6.194270078740157
11
6.4311791338582678
21
-6.2079899606299209
0
LINE
8
BLACK
6
CONTINUOUS
10
6.4311791338582678
20
-6.2079899606299209
11
6.3452104330708661
21
-6.2201961417322833
0
LINE
8
BLACK
6
CONTINUOUS
10
6.3452104330708661
20
-6.2201961417322833
11
6.2590399212598422
21
-6.2308848425196848
0
LINE
8
BLACK
6
CONTINUOUS
10
6.2590399212598422
20
-6.2308848425196848
11
6.1726943307086612
21
-6.2400527952755906
0
LINE
8
BLACK
6
CONTINUOUS
10
6.1726943307086612
20
-6.2400527952755906
11
6.0862005905511811
21
-6.247697125984252
0
LINE
8
BLACK
6
CONTINUOUS
10
6.0862005905511811
20
-6.247697125984252
11
5.9995854724409448
21
-6.253815393700787
0
LINE
8
BLACK
6
CONTINUOUS
10
5.9995854724409448
20
-6.253815393700787
11
5.9128759842519685
21
-6.2584057874015748
0
LINE
8
BLACK
6
CONTINUOUS
10
5.9128759842519685
20
-6.2584057874015748
11
5.8260990157480315
21
-6.2614668503937008
0
LINE
8
BLACK
6
CONTINUOUS
10
5.8260990157480315
20
-6.2614668503937008
11
5.7392816141732279
21
-6.2629976377952756
0
LINE
8
BLACK
6
CONTINUOUS
10
5.7392816141732279
20
-6.2629976377952756
11
5.6524506692913388
21
-6.2629976377952756
0
LINE
8
BLACK
6
CONTINUOUS
10
5.6524506692913388
20
-6.2629976377952756
11
5.5656332677165352
21
-6.2614668503937008
0
LINE
8
BLACK
6
CONTINUOUS
10
5.5656332677165352
20
-6.2614668503937008
11
5.4788562992125982
21
-6.2584057874015748
0
LINE
8
BLACK
6
CONTINUOUS
10
5.4788562992125982
20
-6.2584057874015748
11
5.3921468110236219
21
-6.253815393700787
0
LINE
8
BLACK
6
CONTINUOUS
10
5.3921468110236219
20
-6.253815393700787
11
5.3055316929133856
21
-6.247697125984252
0
LINE
8
BLACK
6
CONTINUOUS
10
5.3055316929133856
20
-6.247697125984252
11
5.2190379527559054
21
-6.2400527952755906
0
LINE
8
BLACK
6
CONTINUOUS
10
5.2190379527559054
20
-6.2400527952755906
11
5.1326923622047245
21
-6.2308848425196848
0
LINE
8
BLACK
6
CONTINUOUS
10
5.1326923622047245
20
-6.2308848425196848
11
5.0465218503937006
21
-6.2201961417322833
0
LINE
8
BLACK
6
CONTINUOUS
10
5.0465218503937006
20
-6.2201961417322833
11
4.9605531496062989
21
-6.2079899606299209
0
LINE
8
BLACK
6
CONTINUOUS
10
4.9605531496062989
20
-6.2079899606299209
11
4.8748129921259844
21
-6.194270078740157
0
LINE
8
BLACK
6
CONTINUOUS
10
4.8748129921259844
20
-6.194270078740157
11
4.7893280314960629
21
-6.1790408267716534
0
LINE
8
BLACK
6
CONTINUOUS
10
4.7893280314960629
20
-6.1790408267716534
11
4.7041248425196853
21
-6.1623069291338579
0
LINE
8
BLACK
6
CONTINUOUS
10
4.7041248425196853
20
-6.1623069291338579
11
4.6192298818897637
21
-6.1440735039370074
0
LINE
8
BLACK
6
CONTINUOUS
10
4.6192298818897637
20
-6.1440735039370074
11
4.5346695669291339
21
-6.1243463385826766
0
LINE
8
BLACK
6
CONTINUOUS
10
4.5346695669291339
20
-6.1243463385826766
11
4.4504701574803152
21
-6.1031314566929131
0
LINE
8
BLACK
6
CONTINUOUS
10
4.4504701574803152
20
-6.1031314566929131
11
4.3666578740157478
21
-6.0804355118110234
0
LINE
8
BLACK
6
CONTINUOUS
10
4.3666578740157478
20
-6.0804355118110234
11
4.2832587007874015
21
-6.0562655511811023
0
LINE
8
BLACK
6
CONTINUOUS
10
4.2832587007874015
20
-6.0562655511811023
11
4.2002985826771653
21
-6.0306290944881891
0
LINE
8
BLACK
6
CONTINUOUS
10
4.2002985826771653
20
-6.0306290944881891
11
4.1178033070866142
21
-6.003534094488189
0
LINE
8
BLACK
6
CONTINUOUS
10
4.1178033070866142
20
-6.003534094488189
11
4.0357985433070862
21
-5.9749889370078737
0
LINE
8
BLACK
6
CONTINUOUS
10
4.0357985433070862
20
-5.9749889370078737
11
3.9543097244094487
21
-5.9450025590551183
0
LINE
8
BLACK
6
CONTINUOUS
10
3.9543097244094487
20
-5.9450025590551183
11
3.8733622047244092
21
-5.913584251968504
0
LINE
8
BLACK
6
CONTINUOUS
10
3.8733622047244092
20
-5.913584251968504
11
3.7929811811023622
21
-5.8807438188976375
0
LINE
8
BLACK
6
CONTINUOUS
10
3.7929811811023622
20
-5.8807438188976375
11
3.7131915748031497
21
-5.8464913779527556
0
LINE
8
BLACK
6
CONTINUOUS
10
3.7131915748031497
20
-5.8464913779527556
11
3.6340182283464566
21
-5.8108376377952755
0
LINE
8
BLACK
6
CONTINUOUS
10
3.6340182283464566
20
-5.8108376377952755
11
3.5554857086614171
21
-5.7737937007874018
0
LINE
8
BLACK
6
CONTINUOUS
10
3.5554857086614171
20
-5.7737937007874018
11
3.477618464566929
21
-5.7353710236220472
0
LINE
8
BLACK
6
CONTINUOUS
10
3.477618464566929
20
-5.7353710236220472
11
3.4004406692913385
21
-5.6955816141732285
0
LINE
8
BLACK
6
CONTINUOUS
10
3.4004406692913385
20
-5.6955816141732285
11
3.3239763779527558
21
-5.6544377559055121
0
LINE
8
BLACK
6
CONTINUOUS
10
3.3239763779527558
20
-5.6544377559055121
11
3.2482492519685038
21
-5.611952283464567
0
LINE
8
BLACK
6
CONTINUOUS
10
3.2482492519685038
20
-5.611952283464567
11
3.1732829133858269
21
-5.5681384251968504
0
LINE
8
BLACK
6
CONTINUOUS
10
3.1732829133858269
20
-5.5681384251968504
11
3.0991005905511808
21
-5.5230097637795277
0
LINE
8
BLACK
6
CONTINUOUS
10
3.0991005905511808
20
-5.5230097637795277
11
3.0257254330708663
21
-5.4765803543307081
0
LINE
8
BLACK
6
CONTINUOUS
10
3.0257254330708663
20
-5.4765803543307081
11
2.9531801574803147
21
-5.4288646062992125
0
LINE
8
BLACK
6
CONTINUOUS
10
2.9531801574803147
20
-5.4288646062992125
11
2.8814873622047243
21
-5.3798773228346457
0
LINE
8
BLACK
6
CONTINUOUS
10
2.8814873622047243
20
-5.3798773228346457
11
2.8106693307086612
21
-5.329633818897638
0
LINE
8
BLACK
6
CONTINUOUS
10
2.8106693307086612
20
-5.329633818897638
11
2.7407480314960631
21
-5.2781496062992126
0
LINE
8
BLACK
6
CONTINUOUS
10
2.7407480314960631
20
-5.2781496062992126
11
2.7405617716535433
21
-5.2779123228346458
0
LINE
8
BLACK
6
CONTINUOUS
10
2.7405617716535433
20
-5.2779123228346458
11
2.7398367322834645
21
-5.277187283464567
0
LINE
8
BLACK
6
CONTINUOUS
10
2.7398367322834645
20
-5.277187283464567
11
2.7396625196850395
21
-5.2767666929133856
0
LINE
8
BLACK
6
CONTINUOUS
10
2.7396625196850395
20
-5.2767666929133856
11
2.73948968503937
21
-5.276546535433071
0
LINE
8
BLACK
6
CONTINUOUS
10
2.73948968503937
20
-5.276546535433071
11
2.7394466929133858
21
-5.276245708661417
0
LINE
8
BLACK
6
CONTINUOUS
10
2.7394466929133858
20
-5.276245708661417
11
2.7392488582677164
21
-5.2757680708661416
0
LINE
8
BLACK
6
CONTINUOUS
10
2.7392488582677164
20
-5.2757680708661416
11
2.7391732283464565
21
-5.2749999999999995
0
LINE
8
BLACK
6
CONTINUOUS
10
2.7391732283464565
20
-5.2749999999999995
11
2.7391732283464565
21
-3.5033464566929133
0
LINE
8
BLACK
6
CONTINUOUS
10
2.7391732283464565
20
-3.5033464566929133
11
2.7392488582677164
21
-3.5025783858267716
0
LINE
8
BLACK
6
CONTINUOUS
10
2.7392488582677164
20
-3.5025783858267716
11
2.7398367322834645
21
-3.5011591732283462
0
LINE
8
BLACK
6
CONTINUOUS
10
2.7398367322834645
20
-3.5011591732283462
11
2.7409229527559056
21
-3.5000729527559056
0
LINE
8
BLACK
6
CONTINUOUS
10
2.7409229527559056
20
-3.5000729527559056
11
2.7423421653543305
21
-3.4994850787401575
0
LINE
8
BLACK
6
CONTINUOUS
10
2.7423421653543305
20
-3.4994850787401575
11
2.7431102362204722
21
-3.4994094488188976
0
LINE
8
BLACK
6
CONTINUOUS
10
2.7431102362204722
20
-3.4994094488188976
11
8.6486220472440944
21
-3.4994094488188976
0
LINE
8
BLACK
6
CONTINUOUS
10
8.6486220472440944
20
-3.4994094488188976
11
8.6493901181102366
21
-3.4994850787401575
0
LINE
8
BLACK
6
CONTINUOUS
10
2.747047244094488
20
-3.5072834645669291
11
2.747047244094488
21
-5.273031496062992
0
LINE
8
BLACK
6
CONTINUOUS
10
2.747047244094488
20
-5.273031496062992
11
2.7801503937007874
21
-5.29785937007874
0
LINE
8
BLACK
6
CONTINUOUS
10
2.7801503937007874
20
-5.29785937007874
11
2.8504130314960627
21
-5.348645866141732
0
LINE
8
BLACK
6
CONTINUOUS
10
2.8504130314960627
20
-5.348645866141732
11
2.9215600787401574
21
-5.3981857874015748
0
LINE
8
BLACK
6
CONTINUOUS
10
2.9215600787401574
20
-5.3981857874015748
11
2.9935694094488188
21
-5.4464637401574798
0
LINE
8
BLACK
6
CONTINUOUS
10
2.9935694094488188
20
-5.4464637401574798
11
3.066418622047244
21
-5.4934647244094483
0
LINE
8
BLACK
6
CONTINUOUS
10
3.066418622047244
20
-5.4934647244094483
11
3.140085157480315
21
-5.5391741338582676
0
LINE
8
BLACK
6
CONTINUOUS
10
3.140085157480315
20
-5.5391741338582676
11
3.2145460629921261
21
-5.5835777559055115
0
LINE
8
BLACK
6
CONTINUOUS
10
3.2145460629921261
20
-5.5835777559055115
11
3.2897781889763777
21
-5.6266617716535432
0
LINE
8
BLACK
6
CONTINUOUS
10
3.2897781889763777
20
-5.6266617716535432
11
3.3657581496062989
21
-5.668412834645669
0
LINE
8
BLACK
6
CONTINUOUS
10
3.3657581496062989
20
-5.668412834645669
11
3.4424623622047243
21
-5.7088179133858263
0
LINE
8
BLACK
6
CONTINUOUS
10
3.4424623622047243
20
-5.7088179133858263
11
3.5198669291338582
21
-5.7478644881889762
0
LINE
8
BLACK
6
CONTINUOUS
10
3.5198669291338582
20
-5.7478644881889762
11
3.5979478740157478
21
-5.7855403937007877
0
LINE
8
BLACK
6
CONTINUOUS
10
3.5979478740157478
20
-5.7855403937007877
11
3.6766808661417323
21
-5.8218339763779525
0
LINE
8
BLACK
6
CONTINUOUS
10
3.6766808661417323
20
-5.8218339763779525
11
3.7560414566929134
21
-5.8567338582677166
0
LINE
8
BLACK
6
CONTINUOUS
10
3.7560414566929134
20
-5.8567338582677166
11
3.8360049606299214
21
-5.8902292913385823
0
LINE
8
BLACK
6
CONTINUOUS
10
3.8360049606299214
20
-5.8902292913385823
11
3.9165465354330706
21
-5.9223098031496058
0
LINE
8
BLACK
6
CONTINUOUS
10
3.9165465354330706
20
-5.9223098031496058
11
3.9976411417322835
21
-5.9529654330708661
0
LINE
8
BLACK
6
CONTINUOUS
10
3.9976411417322835
20
-5.9529654330708661
11
4.079263622047244
21
-5.9821866929133858
0
LINE
8
BLACK
6
CONTINUOUS
10
4.079263622047244
20
-5.9821866929133858
11
4.161388543307087
21
-6.0099644488188977
0
LINE
8
BLACK
6
CONTINUOUS
10
4.161388543307087
20
-6.0099644488188977
11
4.2439903937007877
21
-6.0362900787401577
0
LINE
8
BLACK
6
CONTINUOUS
10
4.2439903937007877
20
-6.0362900787401577
11
4.3270435039370074
21
-6.0611553937007869
0
LINE
8
BLACK
6
CONTINUOUS
10
4.3270435039370074
20
-6.0611553937007869
11
4.410522086614173
21
-6.0845527165354332
0
LINE
8
BLACK
6
CONTINUOUS
10
4.410522086614173
20
-6.0845527165354332
11
4.4944001574803147
21
-6.1064747244094484
0
LINE
8
BLACK
6
CONTINUOUS
10
4.4944001574803147
20
-6.1064747244094484
11
4.5786516535433073
21
-6.1269146062992128
0
LINE
8
BLACK
6
CONTINUOUS
10
4.5786516535433073
20
-6.1269146062992128
11
4.6632503937007872
21
-6.1458660236220473
0
LINE
8
BLACK
6
CONTINUOUS
10
4.6632503937007872
20
-6.1458660236220473
11
4.7481701181102363
21
-6.1633231102362203
0
LINE
8
BLACK
6
CONTINUOUS
10
4.7481701181102363
20
-6.1633231102362203
11
4.8333843700787398
21
-6.179280393700787
0
LINE
8
BLACK
6
CONTINUOUS
10
4.8333843700787398
20
-6.179280393700787
11
4.9188667322834645
21
-6.1937329133858263
0
LINE
8
BLACK
6
CONTINUOUS
10
4.9188667322834645
20
-6.1937329133858263
11
5.004590551181102
21
-6.2066762204724411
0
LINE
8
BLACK
6
CONTINUOUS
10
5.004590551181102
20
-6.2066762204724411
11
5.0905292519685039
21
-6.2181062598425196
0
LINE
8
BLACK
6
CONTINUOUS
10
5.0905292519685039
20
-6.2181062598425196
11
5.1766561023622044
21
-6.2280194881889761
0
LINE
8
BLACK
6
CONTINUOUS
10
5.1766561023622044
20
-6.2280194881889761
11
5.2629443307086614
21
-6.2364128346456695
0
LINE
8
BLACK
6
CONTINUOUS
10
5.2629443307086614
20
-6.2364128346456695
11
5.3493671259842515
21
-6.2432836614173226
0
LINE
8
BLACK
6
CONTINUOUS
10
5.3493671259842515
20
-6.2432836614173226
11
5.4358975984251972
21
-6.2486298818897632
0
LINE
8
BLACK
6
CONTINUOUS
10
5.4358975984251972
20
-6.2486298818897632
11
5.5225088582677166
21
-6.2524497637795271
0
LINE
8
BLACK
6
CONTINUOUS
10
5.5225088582677166
20
-6.2524497637795271
11
5.6091740157480316
21
-6.2547422047244092
0
LINE
8
BLACK
6
CONTINUOUS
10
5.6091740157480316
20
-6.2547422047244092
11
5.6958661417322833
21
-6.2555064173228345
0
LINE
8
BLACK
6
CONTINUOUS
10
5.6958661417322833
20
-6.2555064173228345
11
5.782558267716535
21
-6.2547422047244092
0
LINE
8
BLACK
6
CONTINUOUS
10
5.782558267716535
20
-6.2547422047244092
11
5.86922342519685
21
-6.2524497637795271
0
LINE
8
BLACK
6
CONTINUOUS
10
5.86922342519685
20
-6.2524497637795271
11
5.9558346850393695
21
-6.2486298818897632
0
LINE
8
BLACK
6
CONTINUOUS
10
5.9558346850393695
20
-6.2486298818897632
11
6.0423651574803152
21
-6.2432836614173226
0
LINE
8
BLACK
6
CONTINUOUS
10
6.0423651574803152
20
-6.2432836614173226
11
6.1287879527559053
21
-6.2364128346456695
0
LINE
8
BLACK
6
CONTINUOUS
10
6.1287879527559053
20
-6.2364128346456695
11
6.2150761811023623
21
-6.2280194881889761
0
LINE
8
BLACK
6
CONTINUOUS
10
6.2150761811023623
20
-6.2280194881889761
11
6.3012030314960628
21
-6.2181062598425196
0
LINE
8
BLACK
6
CONTINUOUS
10
6.3012030314960628
20
-6.2181062598425196
11
6.3871417322834647
21
-6.2066762204724411
0
LINE
8
BLACK
6
CONTINUOUS
10
6.3871417322834647
20
-6.2066762204724411
11
6.4728655511811022
21
-6.1937329133858263
0
LINE
8
BLACK
6
CONTINUOUS
10
6.4728655511811022
20
-6.1937329133858263
11
6.5583479133858269
21
-6.179280393700787
0
LINE
8
BLACK
6
CONTINUOUS
10
6.5583479133858269
20
-6.179280393700787
11
6.6435621653543304
21
-6.1633231102362203
0
LINE
8
BLACK
6
CONTINUOUS
10
6.6435621653543304
20
-6.1633231102362203
11
6.7284818897637795
21
-6.1458660236220473
0
LINE
8
BLACK
6
CONTINUOUS
10
6.7284818897637795
20
-6.1458660236220473
11
6.8130806299212594
21
-6.1269146062992128
0
LINE
8
BLACK
6
CONTINUOUS
10
6.8130806299212594
20
-6.1269146062992128
11
6.8973321259842519
21
-6.1064747244094484
0
LINE
8
BLACK
6
CONTINUOUS
10
6.8973321259842519
20
-6.1064747244094484
11
6.9812101968503937
21
-6.0845527165354332
0
LINE
8
BLACK
6
CONTINUOUS
10
6.9812101968503937
20
-6.0845527165354332
11
7.0646887795275592
21
-6.0611553937007869
0
LINE
8
BLACK
6
CONTINUOUS
10
7.0646887795275592
20
-6.0611553937007869
11
7.147741889763779
21
-6.0362900787401577
0
LINE
8
BLACK
6
CONTINUOUS
10
7.147741889763779
20
-6.0362900787401577
11
7.2303437401574797
21
-6.0099644488188977
0
LINE
8
BLACK
6
CONTINUOUS
10
7.2303437401574797
20
-6.0099644488188977
11
7.3124686614173227
21
-5.9821866929133858
0
LINE
8
BLACK
6
CONTINUOUS
10
7.3124686614173227
20
-5.9821866929133858
11
7.3940911417322832
21
-5.9529654330708661
0
LINE
8
BLACK
6
CONTINUOUS
10
7.3940911417322832
20
-5.9529654330708661
11
7.475185748031496
21
-5.9223098031496058
0
LINE
8
BLACK
6
CONTINUOUS
10
7.475185748031496
20
-5.9223098031496058
11
7.5557273228346453
21
-5.8902292913385823
0
LINE
8
BLACK
6
CONTINUOUS
10
7.5557273228346453
20
-5.8902292913385823
11
7.6356908267716532
21
-5.8567338582677166
0
LINE
8
BLACK
6
CONTINUOUS
10
7.6356908267716532
20
-5.8567338582677166
11
7.7150514173228348
21
-5.8218339763779525
0
LINE
8
BLACK
6
CONTINUOUS
10
7.7150514173228348
20
-5.8218339763779525
11
7.7937844094488185
21
-5.7855403937007877
0
LINE
8
BLACK
6
CONTINUOUS
10
7.7937844094488185
20
-5.7855403937007877
11
7.8718653543307084
21
-5.7478644881889762
0
LINE
8
BLACK
6
CONTINUOUS
10
7.8718653543307084
20
-5.7478644881889762
11
7.9492699212598428
21
-5.7088179133858263
0
LINE
8
BLACK
6
CONTINUOUS
10
7.9492699212598428
20
-5.7088179133858263
11
8.0259741338582682
21
-5.668412834645669
0
LINE
8
BLACK
6
CONTINUOUS
10
8.0259741338582682
20
-5.668412834645669
11
8.1019540944881889
21
-5.6266617716535432
0
LINE
8
BLACK
6
CONTINUOUS
10
8.1019540944881889
20
-5.6266617716535432
11
8.177186220472441
21
-5.5835777559055115
0
LINE
8
BLACK
6
CONTINUOUS
10
8.177186220472441
20
-5.5835777559055115
11
8.2516471259842525
21
-5.5391741338582676
0
LINE
8
BLACK
6
CONTINUOUS
10
8.2516471259842525
20
-5.5391741338582676
11
8.3253136614173222
21
-5.4934647244094483
0
LINE
8
BLACK
6
CONTINUOUS
10
8.3253136614173222
20
-5.4934647244094483
11
8.3981628740157479
21
-5.4464637401574798
0
LINE
8
BLACK
6
CONTINUOUS
10
8.3981628740157479
20
-5.4464637401574798
11
8.4701722047244097
21
-5.3981857874015748
0
LINE
8
BLACK
6
CONTINUOUS
10
8.4701722047244097
20
-5.3981857874015748
11
8.5413192519685044
21
-5.348645866141732
0
LINE
8
BLACK
6
CONTINUOUS
10
8.5413192519685044
20
-5.348645866141732
11
8.6115818897637801
21
-5.29785937007874
0
LINE
8
BLACK
6
CONTINUOUS
10
8.6115818897637801
20
-5.29785937007874
11
8.6446850393700778
21
-5.273031496062992
0
LINE
8
BLACK
6
CONTINUOUS
10
8.6446850393700778
20
-5.273031496062992
11
8.6446850393700778
21
-3.5072834645669291
0
LINE
8
BLACK
6
CONTINUOUS
10
8.6446850393700778
20
-3.5072834645669291
11
2.747047244094488
21
-3.5072834645669291
  0
ENDSEC
  0
EOF
